# xmcd CD database file
#
# Track frame offsets:
#	150
#	24224
#	50821
#	82135
#	103196
#	128280
#	154006
#	176240
#	198271
#	216020
#	237493
#	254965
#	274936
#	299516
#	327007
#	343923
#
# Disc length: 4795 seconds
#
# Revision: 0
# Processed by: cddbd v1.5.2PL0 Copyright (c) Steve Scherf et al.
# Submitted via: CDex 1.70beta2
#
DISCID=f912b910
DTITLE=Frankie Hernandez - The Best Of Frankie Martines and Su Orquesta
DYEAR=2009
DGENRE=Salsa
TTITLE0=Son Sabroson
TTITLE1=Morejon
TTITLE2=Añoranza
TTITLE3=Dejala Pepe
TTITLE4=Aquí Estoy Yo Con Mi Son
TTITLE5=Corazón Vagabundo
TTITLE6=Te Transformas
TTITLE7=El Distante
TTITLE8=Pan De Negro
TTITLE9=Pasión De Fuego
TTITLE10=El Herrante
TTITLE11=Huracan
TTITLE12=Cuando Te Vea
TTITLE13=Que Me Perdonen Las Dos
TTITLE14=Porque Te Fuistes
TTITLE15=La Realidad
EXTD=YEAR: 2009
EXTT0=
EXTT1=
EXTT2=
EXTT3=
EXTT4=
EXTT5=
EXTT6=
EXTT7=
EXTT8=
EXTT9=
EXTT10=
EXTT11=
EXTT12=
EXTT13=
EXTT14=
EXTT15=
PLAYORDER=
